/* XPM */
static char *_68404f38eb947d8d0a5044df398eb07UzgOdce5cqL0CtzM[] = {
/* columns rows colors chars-per-pixel */
"128 128 88 1 ",
"  c None",
". c black",
"X c #010000",
"o c #020000",
"O c #030000",
"+ c #040000",
"@ c #050000",
"# c #060000",
"$ c #070000",
"% c #080000",
"& c #090000",
"* c #0A0000",
"= c #100000",
"- c #110000",
"; c #130000",
": c #170000",
"> c #180000",
", c #1A0000",
"< c #1B0000",
"1 c #1E0000",
"2 c #151212",
"3 c #240000",
"4 c #250000",
"5 c #270000",
"6 c #280000",
"7 c #290000",
"8 c #2F0000",
"9 c #300000",
"0 c #370000",
"q c #390000",
"w c #3A0000",
"e c #3B0000",
"r c #3D0000",
"t c #3F0000",
"y c #2D2424",
"u c #400000",
"i c #420000",
"p c #430000",
"a c #440000",
"s c #470000",
"d c #480000",
"f c #520000",
"g c #530000",
"h c #540000",
"j c #560000",
"k c #570000",
"l c #580000",
"z c #590000",
"x c #5A0000",
"c c #5D0000",
"v c #5E0000",
"b c #5F0000",
"n c #610000",
"m c #620000",
"M c #640000",
"N c #650000",
"B c #680000",
"V c #690000",
"C c #6C0000",
"Z c #6D0000",
"A c #6E0000",
"S c #6F0000",
"D c #730000",
"F c #740000",
"G c gray28",
"H c #4D4444",
"J c #504545",
"K c #544A4A",
"L c #5B5B5B",
"P c gray36",
"I c #5E6060",
"U c #646363",
"Y c #656565",
"T c #837979",
"R c #A79999",
"E c #A79E9E",
"W c #A89A9A",
"Q c #AC9F9F",
"! c #B2AAAA",
"~ c #C5C5C5",
"^ c #C5C6C6",
"/ c #C6C6C6",
"( c #CFCDCD",
") c #F5F1F1",
"_ c #F7F1F1",
"` c #F9F3F3",
"' c #FEFEFE",
"] c white",
/* pixels */
"                                                                                                                                ",
"                                                                                                                                ",
"                                                                                                                                ",
"                                                                                                                                ",
"                                                                                                                                ",
"                                                                                                                                ",
"                                                                                                                                ",
"                                                                                                                                ",
"                                                                                                                                ",
"                                                                                                                                ",
"                                                                                                                                ",
"                                                                                                                                ",
"                                                                                                                                ",
"                                                                                                                                ",
"                                                                                                                                ",
"                                                                                                                                ",
"                                                                                                                                ",
"                                                                                                                                ",
"                                                                                                                                ",
"                                                                                                                                ",
"                                                                                                                                ",
"                                                                                                                                ",
"                                                                                                                                ",
"                                                                                                                                ",
"                                                                                                                                ",
"                                                                                                                                ",
"                                                                                                                                ",
"                                                                                                                                ",
"                                                                                                                                ",
"                                                                                                                                ",
"                                                                                                                                ",
"                                                                                                                                ",
"                                                                                                                                ",
"                                                                                                                                ",
"                                                               ;;                                                               ",
"                                                              ....                                                              ",
"                                                              ....                                                              ",
"                                                              ....                                                              ",
"                                                              ....                                                              ",
"                                                              ....                                                              ",
"                                                              ....                                                              ",
"                                                              ....                                                              ",
"                                                              ....                                                              ",
"                                            hhh      hxhhxhhx9....7xhxhhxhh      ghg                                            ",
"                                            ...v     ......................     v...                                            ",
"                                            ...V     ......................     V...                                            ",
"                                            %%@D     ......................     D@%@                                            ",
"                                                SnnNq......................8NnnS                                                ",
"                                                ................................                                                ",
"                                                ;..............................;                                                ",
"                                                ;..............................;                                                ",
"                                                :..............................:                                                ",
"                                            7441....G~~~~~~~(T..................<44;                                            ",
"                                            ........Y]]]]]]]]!......................                                            ",
"                                            ........L]]]]]]]]R......................                                            ",
"                                            ........L]]]]]]]]W......................                                            ",
"                                            ........L]]]]]]]]W......................                                            ",
"                                            ........L]]]]]]]]W......................                                            ",
"                                            ........L]]]]]]]]W......................                                            ",
"                                            ........I]]]]]]]]Q......................                                            ",
"                                            ........U___))___E......................                                            ",
"                                   vxxxxxxv9........2JHHHHHHKy......................4vxxxxxxn                                   ",
"                                   ..........................................................u                                  ",
"                                   ..........................................................@                                  ",
"                                   ..........................................................D                                  ",
"                                   uqqtqtqu1........................................*tttqtqqq                                   ",
"                                            ........................................                                            ",
"                                            @.......................................                                            ",
"                                            ........................................                                            ",
"                                            ........................................                                            ",
"                                            ........................................                                            ",
"                                            ........................................                                            ",
"                                            ........................................                                            ",
"                                            ........................................                                            ",
"                                            %@@@................................@@@.                                            ",
"                                                <..............................:                                                ",
"                                                ;..............................;                                                ",
"                                                %..............................%                                                ",
"                                                7<<1@......................@<<<7                                                ",
"                                            dau      ......................      uat                                            ",
"                                            ...S     ......................     S...                                            ",
"                                            ...V     ......................     V...                                            ",
"                                            ...v     ......................     v...                                            ",
"                                            aat      daaaaaad4....<uaaaaaaa      tat                                            ",
"                                                              ....                                                              ",
"                                                              ....                                                              ",
"                                                              ....                                                              ",
"                                                              ....                                                              ",
"                                                              ....                                                              ",
"                                                              ....                                                              ",
"                                                              ....                                                              ",
"                                                              ....                                                              ",
"                                                              F%%S                                                              ",
"                                                                                                                                ",
"                                                                                                                                ",
"                                                                                                                                ",
"                                                                                                                                ",
"                                                                                                                                ",
"                                                                                                                                ",
"                                                                                                                                ",
"                                                                                                                                ",
"                                                                                                                                ",
"                                                                                                                                ",
"                                                                                                                                ",
"                                                                                                                                ",
"                                                                                                                                ",
"                                                                                                                                ",
"                                                                                                                                ",
"                                                                                                                                ",
"                                                                                                                                ",
"                                                                                                                                ",
"                                                                                                                                ",
"                                                                                                                                ",
"                                                                                                                                ",
"                                                                                                                                ",
"                                                                                                                                ",
"                                                                                                                                ",
"                                                                                                                                ",
"                                                                                                                                ",
"                                                                                                                                ",
"                                                                                                                                ",
"                                                                                                                                ",
"                                                                                                                                ",
"                                                                                                                                ",
"                                                                                                                                ",
"                                                                                                                                ",
"                                                                                                                                ",
"                                                                                                                                "
};
